<svg width="21" height="16" viewBox="0 0 21 16" fill="none" xmlns="http://www.w3.org/2000/svg">
<path d="M11.2884 14.8754L7.22617 14.7995C5.91092 14.7731 4.5924 14.8259 3.30294 14.5518C1.34138 14.1423 1.20241 12.1344 1.057 10.4501C0.856641 8.08229 0.934207 5.67147 1.31232 3.32339C1.52577 2.00588 2.3658 1.21971 3.66488 1.13416C8.05023 0.823681 12.4647 0.860475 16.8404 1.00532C17.3025 1.0186 17.7678 1.09118 18.2235 1.17379C20.4728 1.57671 20.5276 3.8521 20.6734 5.76756C20.8189 7.70278 20.7575 9.64794 20.4795 11.57C20.2566 13.1614 19.8299 14.4959 18.0296 14.6248C15.7738 14.7932 13.5698 14.9289 11.3077 14.8857C11.3078 14.8754 11.2948 14.8754 11.2884 14.8754ZM8.90019 10.8465C10.6001 9.84904 12.2676 8.86826 13.9577 7.87753C12.2547 6.88012 10.5904 5.89933 8.90019 4.90861V10.8465Z" fill="#FFFFFF"/>
</svg>
